<svg xmlns="http://www.w3.org/2000/svg" viewBox="0 0 43 48.52"><defs><style>.cls-1{fill:#0093dd;}.cls-2{fill:#333;}</style></defs><title>icon_only</title><g id="Layer_2" data-name="Layer 2"><g id="Layer_1-2" data-name="Layer 1"><path class="cls-1" d="M32.26,4.7l1,.55c4.72,2.74,7.07,4.11,8.44,6.51S43,16.82,43,22.16v2.62c0,5.34,0,8-1.34,10.4-1.15,2-3,3.3-6.34,5.28l0,0-4.39-2.56.11-.06c4-2.34,6-3.5,6.81-4.88s.78-3.66.77-8.2V22.16c0-4.54,0-6.83-.77-8.2S35,11.42,31,9.08l-1-.56h0l-1.1-.64C25,5.59,23,4.44,21.5,4.44S18,5.58,14.08,7.87h0L13,8.52h0l-1,.56C8,11.42,6,12.58,5.2,14s-.78,3.66-.78,8.2v2.62c0,4.54,0,6.83.78,8.2S8,35.52,12,37.86l1,.56,2,1.16,6.53,3.81L25.89,46l-3.61,2.11h0l-.78.46-1.11-.65-9.64-5.62-1-.56C5.07,39,2.72,37.58,1.35,35.18S0,30.12,0,24.78V22.16c0-5.34,0-8,1.35-10.4S5.07,8,9.79,5.25l1-.55h0l1.1-.64h0C16.47,1.35,18.78,0,21.5,0s5,1.35,9.66,4.05l1.1.64Z"/><path class="cls-2" d="M28.72,11.12l.59.34C32.43,13.27,34,14.18,35,15.88s1,3.46.95,7v1.66c0,3.52,0,5.3-.95,7s-2.53,2.61-5.64,4.42l-.61.35-.32.19L24,33.91l2.5-1.46.61-.35c2.41-1.41,3.62-2.11,4-2.79s.39-2.06.38-4.78V22.87c0-2.73,0-4.1-.38-4.79s-1.6-1.38-4-2.79l-.6-.35h0l-.7-.41h0c-2.34-1.38-3.52-2.06-4.28-2.06s-1.94.68-4.29,2.06h0l-.7.41h0l-.61.36c-2.42,1.4-3.62,2.1-4,2.78s-.39,2.06-.39,4.79v1.66c0,2.72,0,4.1.39,4.78s1.59,1.38,4,2.79l.61.35,5,2.91h0l11.28,6.58-4.4,2.56-6.88-4-1.11-.65-6.1-3.56-.61-.35C10.56,34.12,9,33.22,8,31.51s-1-3.46-1-7V22.87c0-3.53,0-5.3,1-7s2.53-2.6,5.64-4.42l.6-.34h0l.7-.41h0C18,8.92,19.56,8,21.5,8S25,8.92,28,10.71h0l.7.41Z"/></g></g></svg>